<svg xmlns="http://www.w3.org/2000/svg" viewBox="0 0 128 128">
    <path fill="#F7A80D" d="M38.089 77.466l-11.4 4.896 10.559 4.514 12.241-4.514-11.4-4.896zm-17.138 6.12l-.382 22.034 16.679 7.345V90.089l-16.297-6.503zm34.276 0l-15.073 5.739V110.9l15.073-6.121V83.586zm17.979-68.551L61.73 19.931l10.635 4.515 12.241-4.515-11.4-4.896zm-15.914 6.503v22.034l14.231 4.132.459-20.046-14.69-6.12zm31.828 1.224L76.051 27.5v20.881l15.073-6.121V22.762zm-8.344 55.173l-7.631-3.697 7.631-3.697 7.631 3.697-7.631 3.697z"/>
    <path fill="#F7A80D" d="M67.662 19.931l-11.4-4.896-11.4 4.896 11.4 4.896 11.4-4.896zm-15.914 6.503V48.47l14.690-6.121.459-20.046-15.149-1.833zm31.828 1.224l-13.069 4.739V54.59l15.073-6.121V22.762zM51.748 55.033l-11.4 4.896 10.559 4.514 12.241-4.514-11.4-4.896zm-17.138 6.12l-.382 22.034 16.679 7.345V90.089l-16.297-6.503zm34.276 0l-15.073 5.739V110.9l15.073-6.121V83.586zm17.979-68.551L61.73 19.931l10.635 4.515 12.241-4.515-11.4-4.896zm-15.914 6.503v22.034l14.231 4.132.459-20.046-14.69-6.12zm31.828 1.224L76.051 27.5v20.881l15.073-6.121V22.762z"/>
</svg>